<?xml version="1.0" encoding="utf-8"?>
<!-- Generator: Adobe Illustrator 24.3.0, SVG Export Plug-In . SVG Version: 6.00 Build 0)  -->
<svg version="1.1" xmlns="http://www.w3.org/2000/svg" xmlns:xlink="http://www.w3.org/1999/xlink" x="0px" y="0px"
	 viewBox="0 0 500 500" style="enable-background:new 0 0 500 500;" xml:space="preserve">
<style type="text/css">
	.st0{fill:#FFFFFF;}
</style>
<g id="background">
</g>
<g id="Objects">
	<g>
		<path class="st0" d="M408.9,69.1h-12.4v26c0,11.9-9.7,21.7-21.7,21.7c-11.9,0-21.7-9.7-21.7-21.7v-26h-40v26
			c0,11.9-9.7,21.7-21.7,21.7c-11.9,0-21.7-9.7-21.7-21.7v-26h-40v26c0,11.9-9.7,21.7-21.7,21.7c-11.9,0-21.7-9.7-21.7-21.7v-26h-40
			v26c0,11.9-9.7,21.7-21.7,21.7c-11.9,0-21.7-9.7-21.7-21.7v-26H91.1c-22.9,0-41.6,18.6-41.6,41.6v317.8
			c0,22.9,18.6,41.6,41.6,41.6h317.8c22.9,0,41.6-18.6,41.6-41.6V110.6C450.5,87.7,431.8,69.1,408.9,69.1z M422.5,428.4H77.5
			c-4.6,0-8.4-3.7-8.4-8.4V177c0-4.6,3.7-8.4,8.4-8.4h345.1c4.6,0,8.4,3.7,8.4,8.4v243.1C430.9,424.7,427.2,428.4,422.5,428.4z"/>
		<path class="st0" d="M125.1,108.2L125.1,108.2c7.2,0,13-5.8,13-13V43c0-7.2-5.8-13-13-13h0c-7.2,0-13,5.8-13,13v52.1
			C112.1,102.3,117.9,108.2,125.1,108.2z"/>
		<path class="st0" d="M208.4,108.2L208.4,108.2c7.2,0,13-5.8,13-13V43c0-7.2-5.8-13-13-13h0c-7.2,0-13,5.8-13,13v52.1
			C195.3,102.3,201.2,108.2,208.4,108.2z"/>
		<path class="st0" d="M291.6,108.2L291.6,108.2c7.2,0,13-5.8,13-13V43c0-7.2-5.8-13-13-13h0c-7.2,0-13,5.8-13,13v52.1
			C278.6,102.3,284.4,108.2,291.6,108.2z"/>
		<path class="st0" d="M374.9,108.2L374.9,108.2c7.2,0,13-5.8,13-13V43c0-7.2-5.8-13-13-13h0c-7.2,0-13,5.8-13,13v52.1
			C361.9,102.3,367.7,108.2,374.9,108.2z"/>
		<path class="st0" d="M342,215.5c0,1.8-0.6,3.5-1.9,4.8c-41.5,45.4-75.4,97.8-99.8,154.3c-3,7-9.3,12.1-16.9,13.6
			c-0.1,0-0.2,0-0.3,0.1c-9.7,1.9-19.6-2.6-24.5-11.2c-11.3-19.7-24.2-38.5-38.4-56.2c-3.4-4.2-2.8-10.3,1.3-13.7
			c0.1-0.1,0.2-0.1,0.3-0.2c9.7-8.1,24.2-6.4,31.5,3.8c9,12.4,17.6,25.2,25.7,38.1c27.4-49.3,66.7-99,111-138.9
			c3.7-3.3,9.5-2,11.4,2.5C341.8,213.6,342,214.5,342,215.5z"/>
	</g>
</g>
</svg>
